<svg xmlns="http://www.w3.org/2000/svg" viewBox="0 0 381.22 56.74"><defs><style>.a{fill:#241e21;}.b{fill:#57068c;}</style></defs><title>Tandon_long_logo</title><rect class="a" x="189.05" width="1.29" height="56.74"/><polygon class="b" points="74.5 12.47 81.31 12.47 97.05 32.32 97.05 12.47 104.36 12.47 104.36 44.7 98.07 44.7 81.8 24.21 81.8 44.7 74.5 44.7 74.5 12.47"/><polygon class="b" points="120.96 31.99 108.04 12.47 116.69 12.47 124.71 25.41 132.86 12.47 141.26 12.47 128.35 31.86 128.35 44.7 120.96 44.7 120.96 31.99"/><path class="b" d="M144.43,30.89V12.47h7.39V30.71c0,5.25,2.73,8,7.25,8s7.25-2.63,7.25-7.73V12.47h7.39V30.66c0,9.76-5.71,14.54-14.73,14.54s-14.55-4.83-14.55-14.31"/><path class="b" d="M26.07,29.59c-6.06-3.47-5.46-8.43-2.94-12.07a.51.51,0,0,0,.06-.35,13.65,13.65,0,0,0-1.5-3.65c-.11-.15-.2-.14-.21,0,0,1-1.22,3.47-3,6.33-1.92,3-1.92,9.65,7.58,9.91.09,0,.11-.09,0-.14m1.62-.25c-3.63-7.43,3.62-12.23,4.81-13.27.17-.14.12-.28.13-.45A16.92,16.92,0,0,0,30.77,9c-.07-.08-.12,0-.14,0C30,11.31,26.7,14.74,26,15.49c-5.6,6.38-4.32,10.27,1.53,13.93.07,0,.16,0,.12-.09M28.87,29c1.71-7.88,8.4-8.07,9-9.56.93-2.33-.77-6.47-1.21-7a.07.07,0,0,0-.12,0,14,14,0,0,1-3.45,4.56c-1.51,1.17-7.32,5.3-4.35,11.94a.07.07,0,0,0,.14,0m1.19.69c10.82.37,11.59-9.09,11.63-12.63,0-.21-.1-.22-.16-.08a10.15,10.15,0,0,1-5.63,5A9.82,9.82,0,0,0,30,29.59c0,.07,0,.11.1.12m2.46,1.16H24v2.38h8.54Zm-5,19.24a.64.64,0,0,0,1.17,0l2.07-15.72h-5Zm31.62,6.63H0V0H59.15Z"/><polygon class="a" points="209.91 16.95 205.83 16.95 205.83 14.34 216.94 14.34 216.94 16.95 212.86 16.95 212.86 27.2 209.91 27.2 209.91 16.95"/><path class="a" d="M224.8,21.82,223,17.65l-1.78,4.17Zm-3.1-7.57h2.72l5.75,13h-3.08l-1.23-2.88h-5.67L219,27.2h-3Z"/><polygon class="a" points="231.88 14.34 234.6 14.34 240.88 22.26 240.88 14.34 243.8 14.34 243.8 27.2 241.29 27.2 234.79 19.03 234.79 27.2 231.88 27.2 231.88 14.34"/><path class="a" d="M249.54,16.89v7.76h2.28a3.75,3.75,0,0,0,4-3.84v0a3.77,3.77,0,0,0-4-3.88Zm-3-2.55h5.23c4.22,0,7.13,2.77,7.13,6.39v0c0,3.62-2.91,6.43-7.13,6.43h-5.23Z"/><path class="a" d="M271.77,20.81v0a4,4,0,0,0-4.06-4,3.92,3.92,0,0,0-4,4v0a4,4,0,0,0,4.06,4,3.92,3.92,0,0,0,4-4m-11.17,0v0c0-3.65,3-6.65,7.15-6.65s7.11,3,7.11,6.61v0a6.8,6.8,0,0,1-7.15,6.65c-4.14,0-7.11-3-7.11-6.61"/><polygon class="a" points="277.11 14.34 279.83 14.34 286.11 22.26 286.11 14.34 289.02 14.34 289.02 27.2 286.51 27.2 280.02 19.03 280.02 27.2 277.11 27.2 277.11 14.34"/><path class="a" d="M297.09,25.33l1.74-2a6.3,6.3,0,0,0,4,1.56c1.21,0,1.94-.46,1.94-1.21v0c0-.72-.46-1.08-2.7-1.64-2.7-.66-4.45-1.38-4.45-3.93v0c0-2.33,2-3.88,4.7-3.88a8,8,0,0,1,5,1.64l-1.53,2.13a6.46,6.46,0,0,0-3.49-1.27c-1.13,0-1.72.5-1.72,1.12v0c0,.85.57,1.12,2.89,1.69,2.72.68,4.25,1.62,4.25,3.86v0c0,2.55-2,4-4.92,4a8.75,8.75,0,0,1-5.69-2.06"/><path class="a" d="M309.68,20.81v0a6.68,6.68,0,0,1,7-6.65,7.07,7.07,0,0,1,5.29,2l-1.88,2.08a5,5,0,0,0-3.43-1.45,3.88,3.88,0,0,0-3.89,4v0a3.89,3.89,0,0,0,3.89,4,4.94,4.94,0,0,0,3.53-1.51l1.88,1.82a7,7,0,0,1-5.5,2.3,6.63,6.63,0,0,1-6.88-6.61"/><polygon class="a" points="324.43 14.34 327.38 14.34 327.38 19.43 332.82 19.43 332.82 14.34 335.77 14.34 335.77 27.2 332.82 27.2 332.82 22.04 327.38 22.04 327.38 27.2 324.43 27.2 324.43 14.34"/><path class="a" d="M349.57,20.81v0a4,4,0,0,0-4.06-4,3.92,3.92,0,0,0-4,4v0a4,4,0,0,0,4.06,4,3.92,3.92,0,0,0,4-4m-11.17,0v0a6.8,6.8,0,0,1,7.14-6.65c4.14,0,7.11,3,7.11,6.61v0c0,3.66-3,6.65-7.15,6.65s-7.11-3-7.11-6.61"/><path class="a" d="M365.87,20.81v0a4,4,0,0,0-4.06-4,3.92,3.92,0,0,0-4,4v0a4,4,0,0,0,4.06,4,3.92,3.92,0,0,0,4-4m-11.17,0v0a6.8,6.8,0,0,1,7.14-6.65c4.14,0,7.11,3,7.11,6.61v0c0,3.66-3,6.65-7.15,6.65s-7.11-3-7.11-6.61"/><polygon class="a" points="371.59 14.34 374.54 14.34 374.54 24.63 381.22 24.63 381.22 27.2 371.59 27.2 371.59 14.34"/><path class="a" d="M217.36,39.72v0a4,4,0,0,0-4.06-4,3.92,3.92,0,0,0-4,4v0a4,4,0,0,0,4.06,4,3.92,3.92,0,0,0,4-4m-11.17,0v0A6.8,6.8,0,0,1,213.34,33c4.14,0,7.11,3,7.11,6.61v0c0,3.66-3,6.65-7.15,6.65s-7.11-3-7.11-6.61"/><polygon class="a" points="223.08 33.25 233.29 33.25 233.29 35.82 226.03 35.82 226.03 38.56 232.43 38.56 232.43 41.13 226.03 41.13 226.03 46.11 223.08 46.11 223.08 33.25"/><polygon class="a" points="241.41 33.25 251.53 33.25 251.53 35.77 244.34 35.77 244.34 38.38 250.66 38.38 250.66 40.9 244.34 40.9 244.34 43.6 251.62 43.6 251.62 46.11 241.41 46.11 241.41 33.25"/><polygon class="a" points="254.25 33.25 256.98 33.25 263.26 41.17 263.26 33.25 266.17 33.25 266.17 46.11 263.66 46.11 257.17 37.94 257.17 46.11 254.25 46.11 254.25 33.25"/><path class="a" d="M268.81,39.72v0a6.75,6.75,0,0,1,7-6.65,7.55,7.55,0,0,1,5.27,1.77l-1.86,2.15a5.06,5.06,0,0,0-3.51-1.3,3.93,3.93,0,0,0-3.85,4v0A3.93,3.93,0,0,0,276,43.76a4.85,4.85,0,0,0,2.78-.77V41.15h-3V38.71h5.82V44.3a8.92,8.92,0,0,1-5.73,2c-4.18,0-7-2.81-7-6.61"/><rect class="a" x="284.57" y="33.25" width="2.95" height="12.86"/><polygon class="a" points="290.88 33.25 293.59 33.25 299.88 41.17 299.88 33.25 302.79 33.25 302.79 46.11 300.28 46.11 293.79 37.94 293.79 46.11 290.88 46.11 290.88 33.25"/><polygon class="a" points="306.02 33.25 316.13 33.25 316.13 35.77 308.95 35.77 308.95 38.38 315.27 38.38 315.27 40.9 308.95 40.9 308.95 43.6 316.23 43.6 316.23 46.11 306.02 46.11 306.02 33.25"/><polygon class="a" points="318.87 33.25 328.98 33.25 328.98 35.77 321.8 35.77 321.8 38.38 328.12 38.38 328.12 40.9 321.8 40.9 321.8 43.6 329.08 43.6 329.08 46.11 318.87 46.11 318.87 33.25"/><path class="a" d="M337.65,39.5c1.44,0,2.26-.73,2.26-1.82v0c0-1.21-.88-1.84-2.32-1.84h-2.93V39.5Zm-5.94-6.25h6.13a5.48,5.48,0,0,1,3.91,1.3,4,4,0,0,1,1.15,2.94v0a4,4,0,0,1-2.87,4l3.28,4.59h-3.45L337,42h-2.32v4.12h-3Z"/><rect class="a" x="345.71" y="33.25" width="2.95" height="12.86"/><polygon class="a" points="352.01 33.25 354.73 33.25 361.02 41.17 361.02 33.25 363.93 33.25 363.93 46.11 361.42 46.11 354.93 37.94 354.93 46.11 352.01 46.11 352.01 33.25"/><path class="a" d="M366.57,39.72v0a6.75,6.75,0,0,1,7-6.65,7.55,7.55,0,0,1,5.27,1.77L377,36.95a5.06,5.06,0,0,0-3.5-1.3,3.93,3.93,0,0,0-3.85,4v0a3.93,3.93,0,0,0,4.06,4.08,4.85,4.85,0,0,0,2.78-.77V41.15h-3V38.71h5.82V44.3a8.92,8.92,0,0,1-5.73,2c-4.18,0-7-2.81-7-6.61"/></svg>